<svg width="24" height="25" viewBox="0 0 24 25" fill="none" xmlns="http://www.w3.org/2000/svg">
<path d="M20.04 7.31994L14.28 3.28994C12.71 2.18994 10.3 2.24994 8.78999 3.41994L3.77999 7.32994C2.77999 8.10994 1.98999 9.70994 1.98999 10.9699V17.8699C1.98999 20.4199 4.05999 22.4999 6.60999 22.4999H17.39C19.94 22.4999 22.01 20.4299 22.01 17.8799V11.0999C22.01 9.74994 21.14 8.08994 20.04 7.31994ZM12.75 18.4999C12.75 18.9099 12.41 19.2499 12 19.2499C11.59 19.2499 11.25 18.9099 11.25 18.4999V15.4999C11.25 15.0899 11.59 14.7499 12 14.7499C12.41 14.7499 12.75 15.0899 12.75 15.4999V18.4999Z" fill="url(#paint0_linear_64_1202)"/>
<defs>
<linearGradient id="paint0_linear_64_1202" x1="22.0064" y1="20.3585" x2="13.758" y2="-3.64687" gradientUnits="userSpaceOnUse">
<stop stop-color="#FDDB32"/>
<stop offset="0.07" stop-color="#FBCF35"/>
<stop offset="0.18" stop-color="#F9B140"/>
<stop offset="0.34" stop-color="#F47F50"/>
<stop offset="0.52" stop-color="#EF3C67"/>
<stop offset="0.61" stop-color="#EC1A73"/>
<stop offset="0.897276" stop-color="#B53689"/>
<stop offset="1" stop-color="#8052A0"/>
</linearGradient>
</defs>
</svg>
